<svg width="32" height="33" viewBox="0 0 32 33" fill="none" xmlns="http://www.w3.org/2000/svg">
<path d="M4.79995 2.3501C4.3756 2.3501 3.96864 2.51867 3.66858 2.81873C3.36852 3.11878 3.19995 3.52575 3.19995 3.9501C3.19995 4.37444 3.36852 4.78141 3.66858 5.08147C3.96864 5.38153 4.3756 5.5501 4.79995 5.5501H6.75195L7.23995 7.5053C7.2448 7.52781 7.25013 7.55022 7.25595 7.5725L9.42875 16.2605L7.99995 17.6877C5.98395 19.7037 7.41115 23.1501 10.2624 23.1501H24C24.4243 23.1501 24.8313 22.9815 25.1313 22.6815C25.4314 22.3814 25.6 21.9744 25.6 21.5501C25.6 21.1257 25.4314 20.7188 25.1313 20.4187C24.8313 20.1187 24.4243 19.9501 24 19.9501H10.2624L11.8624 18.3501H22.4C22.697 18.3499 22.9882 18.2671 23.2408 18.1108C23.4934 17.9545 23.6976 17.731 23.8304 17.4653L28.6304 7.8653C28.7522 7.62142 28.8097 7.35046 28.7975 7.07811C28.7852 6.80576 28.7036 6.54106 28.5603 6.30913C28.417 6.0772 28.2168 5.88573 27.9787 5.75289C27.7406 5.62005 27.4726 5.55024 27.2 5.5501H10.048L9.55195 3.5613C9.46528 3.2153 9.26547 2.90819 8.98428 2.68875C8.70309 2.4693 8.35664 2.35011 7.99995 2.3501H4.79995ZM25.6 27.1501C25.6 27.7866 25.3471 28.3971 24.897 28.8472C24.4469 29.2972 23.8365 29.5501 23.2 29.5501C22.5634 29.5501 21.953 29.2972 21.5029 28.8472C21.0528 28.3971 20.8 27.7866 20.8 27.1501C20.8 26.5136 21.0528 25.9031 21.5029 25.453C21.953 25.003 22.5634 24.7501 23.2 24.7501C23.8365 24.7501 24.4469 25.003 24.897 25.453C25.3471 25.9031 25.6 26.5136 25.6 27.1501ZM10.4 29.5501C11.0365 29.5501 11.6469 29.2972 12.097 28.8472C12.5471 28.3971 12.8 27.7866 12.8 27.1501C12.8 26.5136 12.5471 25.9031 12.097 25.453C11.6469 25.003 11.0365 24.7501 10.4 24.7501C9.76343 24.7501 9.15298 25.003 8.70289 25.453C8.25281 25.9031 7.99995 26.5136 7.99995 27.1501C7.99995 27.7866 8.25281 28.3971 8.70289 28.8472C9.15298 29.2972 9.76343 29.5501 10.4 29.5501Z" fill="#565956"/>
</svg>
