<svg width="16" height="17" viewBox="0 0 16 17" fill="none" xmlns="http://www.w3.org/2000/svg">
<path d="M6.98245 13.3859L2.98245 6.9859C2.86892 6.80426 2.80608 6.59553 2.80046 6.3814C2.79484 6.16727 2.84664 5.95553 2.95048 5.76818C3.05432 5.58083 3.20642 5.42468 3.39098 5.31596C3.57554 5.20724 3.78585 5.1499 4.00005 5.1499H12.0001C12.2143 5.1499 12.4246 5.20724 12.6091 5.31596C12.7937 5.42468 12.9458 5.58083 13.0496 5.76818C13.1535 5.95553 13.2053 6.16727 13.1996 6.3814C13.194 6.59553 13.1312 6.80426 13.0177 6.9859L9.01765 13.3859C8.90978 13.5585 8.75979 13.7008 8.58178 13.7995C8.40376 13.8981 8.20358 13.9499 8.00005 13.9499C7.79652 13.9499 7.59634 13.8981 7.41833 13.7995C7.24031 13.7008 7.09032 13.5585 6.98245 13.3859Z" fill="#948260"/>
</svg>
